<svg width="800" height="800" viewBox="0 0 800 800" fill="none" xmlns="http://www.w3.org/2000/svg">
<defs>
<linearGradient id="paint0_linear" x1="400" y1="0" x2="400" y2="800" gradientUnits="userSpaceOnUse">
<stop stop-color="#326CF6"/>
<stop offset="0.992652" stop-color="#7C12E6"/>
</linearGradient>
</defs>
<path d="M0 400C0 211.438 0 117.157 58.5786 58.5786C117.157 0 211.438 0 400 0V0C588.562 0 682.843 0 741.421 58.5786C800 117.157 800 211.438 800 400V400C800 588.562 800 682.843 741.421 741.421C682.843 800 588.562 800 400 800V800C211.438 800 117.157 800 58.5786 741.421C0 682.843 0 588.562 0 400V400Z" fill="url(#paint0_linear)"/>
<path d="M525.411 242.79C525.411 168.127 465.68 108.912 390.503 108.912C314.295 108.912 254.565 167.355 254.565 243.048C254.565 300.718 287.005 342.426 321.504 374.093C332.06 383.877 342.358 392.63 352.142 400.354C342.873 407.048 332.832 415.287 322.792 424.555C287.777 456.48 254.565 498.703 254.565 557.403C254.565 631.808 314.295 691.023 390.503 691.023C465.68 691.023 525.411 631.808 525.411 557.403C525.411 499.218 493.743 457.767 458.729 426.615C447.401 415.029 438.132 407.563 427.834 400.354C438.647 391.858 449.975 382.589 460.274 372.034C494.516 341.139 525.411 299.946 525.411 242.79ZM390.503 153.452C439.42 153.452 480.87 194.388 480.87 242.79C480.87 282.439 458.214 313.848 429.379 339.852C415.476 353.497 402.346 363.28 390.245 372.034C378.66 363.795 366.044 354.269 353.172 341.911C323.306 314.878 299.105 283.983 299.105 243.048C299.105 193.616 340.814 153.195 390.503 153.452ZM390.503 646.483C340.814 646.483 299.105 605.548 299.105 557.403C299.105 515.18 324.336 484.028 354.974 456.48C367.589 444.637 379.175 435.368 390.245 427.644C397.454 433.566 412.902 443.864 427.834 458.539C457.184 485.057 480.87 516.467 480.87 557.403C480.87 605.548 439.42 646.483 390.503 646.483Z" fill="white"/>
</svg>
